<?xml version="1.0" encoding="UTF-8" standalone="no"?>
<svg
   xmlns:dc="http://purl.org/dc/elements/1.1/"
   xmlns:cc="http://creativecommons.org/ns#"
   xmlns:rdf="http://www.w3.org/1999/02/22-rdf-syntax-ns#"
   xmlns:svg="http://www.w3.org/2000/svg"
   xmlns="http://www.w3.org/2000/svg"
   xmlns:sodipodi="http://sodipodi.sourceforge.net/DTD/sodipodi-0.dtd"
   width="142.5889pt"
   height="142.59128pt"
   viewBox="0 0 142.5889 142.59127"
   version="1.1"
   id="svg209"
   sodipodi:docname="Logo.svg">
  <metadata
     id="metadata215">
    <rdf:RDF>
      <cc:Work
         rdf:about="">
        <dc:format>image/svg+xml</dc:format>
        <dc:type
           rdf:resource="http://purl.org/dc/dcmitype/StillImage" />
        <dc:title></dc:title>
      </cc:Work>
    </rdf:RDF>
  </metadata>
  <sodipodi:namedview
     pagecolor="#ffffff"
     bordercolor="#666666"
     borderopacity="1"
     objecttolerance="10"
     gridtolerance="10"
     guidetolerance="10"
     id="namedview211"
     showgrid="false" />
  <g
     id="surface3483"
     transform="translate(-277.42062,-215.88107)">
    <rect
       style="fill:#ffffff;fill-opacity:1;stroke-width:0.75"
       id="background"
       width="142.5889"
       height="142.59127"
       x="277.42062"
       y="215.88107" />
    <path
       style="fill:none;stroke:#4c4c4c;stroke-width:1.33333337;stroke-linecap:butt;stroke-linejoin:miter;stroke-miterlimit:10;stroke-opacity:1"
       d="M 26.689175,-7.1897719e-5 26.689174,190.12073"
       id="path883"
       transform="matrix(0.74999998,0,0,0.74999998,277.42062,215.88107)" />
    <path
       style="fill:none;stroke:#4c4c4c;stroke-width:1.33333337;stroke-linecap:butt;stroke-linejoin:miter;stroke-miterlimit:10;stroke-opacity:1"
       d="M 54.038136,-7.1897719e-5 V 190.12073"
       id="path891"
       transform="matrix(0.74999998,0,0,0.74999998,277.42062,215.88107)" />
    <path
       style="fill:none;stroke:#4c4c4c;stroke-width:1.33333337;stroke-linecap:butt;stroke-linejoin:miter;stroke-miterlimit:10;stroke-opacity:1"
       d="M 81.387097,-7.1897719e-5 V 190.12073"
       id="path898"
       transform="matrix(0.74999998,0,0,0.74999998,277.42062,215.88107)" />
    <path
       style="fill:none;stroke:#4c4c4c;stroke-width:1.33333337;stroke-linecap:butt;stroke-linejoin:miter;stroke-miterlimit:10;stroke-opacity:1"
       d="M 108.73606,-7.1897719e-5 V 190.12073"
       id="path913"
       transform="matrix(0.74999998,0,0,0.74999998,277.42062,215.88107)" />
    <path
       style="fill:none;stroke:#4c4c4c;stroke-width:1.33333337;stroke-linecap:butt;stroke-linejoin:miter;stroke-miterlimit:10;stroke-opacity:1"
       d="M 136.09022,-7.1897719e-5 V 190.12073"
       id="path918"
       transform="matrix(0.74999998,0,0,0.74999998,277.42062,215.88107)" />
    <path
       style="fill:none;stroke:#4c4c4c;stroke-width:1.33333337;stroke-linecap:butt;stroke-linejoin:miter;stroke-miterlimit:10;stroke-opacity:1"
       d="M 163.43918,-7.1897719e-5 V 190.12073"
       id="path923"
       transform="matrix(0.74999998,0,0,0.74999998,277.42062,215.88107)" />
    <path
       style="fill:none;stroke:#4c4c4c;stroke-width:1.33333337;stroke-linecap:butt;stroke-linejoin:miter;stroke-miterlimit:10;stroke-opacity:1"
       d="M -6.8711753e-5,163.43983 H 190.11884"
       id="path928"
       transform="matrix(0.74999998,0,0,0.74999998,277.42062,215.88107)" />
    <path
       style="fill:none;stroke:#4c4c4c;stroke-width:1.33333337;stroke-linecap:butt;stroke-linejoin:miter;stroke-miterlimit:10;stroke-opacity:1"
       d="M -6.8711753e-5,136.09087 H 190.11884"
       id="path933"
       transform="matrix(0.74999998,0,0,0.74999998,277.42062,215.88107)" />
    <path
       style="fill:none;stroke:#4c4c4c;stroke-width:1.33333337;stroke-linecap:butt;stroke-linejoin:miter;stroke-miterlimit:10;stroke-opacity:1"
       d="M -6.8711753e-5,108.74191 H 190.11884"
       id="path944"
       transform="matrix(0.74999998,0,0,0.74999998,277.42062,215.88107)" />
    <path
       style="fill:none;stroke:#4c4c4c;stroke-width:1.33333337;stroke-linecap:butt;stroke-linejoin:miter;stroke-miterlimit:10;stroke-opacity:1"
       d="M -6.8711753e-5,81.387735 H 190.11884"
       id="path949"
       transform="matrix(0.74999998,0,0,0.74999998,277.42062,215.88107)" />
    <path
       style="fill:none;stroke:#4c4c4c;stroke-width:1.33333337;stroke-linecap:butt;stroke-linejoin:miter;stroke-miterlimit:10;stroke-opacity:1"
       d="M -6.8711753e-5,54.038788 H 190.11884"
       id="path954"
       transform="matrix(0.74999998,0,0,0.74999998,277.42062,215.88107)" />
    <path
       style="fill:none;stroke:#4c4c4c;stroke-width:1.33333337;stroke-linecap:butt;stroke-linejoin:miter;stroke-miterlimit:10;stroke-opacity:1"
       d="M -6.8711753e-5,26.689827 H 190.11884"
       id="path959"
       transform="matrix(0.74999998,0,0,0.74999998,277.42062,215.88107)" />
    <path
       style="fill:#000000;fill-opacity:1;fill-rule:nonzero;stroke:none"
       d="m 301.53906,235.89844 c 0,5.46875 -8.20703,5.46875 -8.20703,0 0,-5.47266 8.20703,-5.47266 8.20703,0"
       id="path148" />
    <path
       style="fill:#ff0000;fill-opacity:1;fill-rule:nonzero;stroke:none"
       d="m 404.10156,338.46094 c 0,5.46875 -8.20312,5.46875 -8.20312,0 0,-5.46875 8.20312,-5.46875 8.20312,0"
       id="path150" />
    <path
       style="fill:#000000;fill-opacity:1;fill-rule:nonzero;stroke:none"
       d="m 322.05078,256.41016 c 0,5.46875 -8.20312,5.46875 -8.20312,0 0,-5.46875 8.20312,-5.46875 8.20312,0"
       id="path152" />
    <path
       style="fill:#ff0000;fill-opacity:1;fill-rule:nonzero;stroke:none"
       d="m 404.10156,317.94922 c 0,5.46875 -8.20312,5.46875 -8.20312,0 0,-5.46875 8.20312,-5.46875 8.20312,0"
       id="path154" />
    <path
       style="fill:#000000;fill-opacity:1;fill-rule:nonzero;stroke:none"
       d="m 322.05078,276.92187 c 0,5.47266 -8.20312,5.47266 -8.20312,0 0,-5.46875 8.20312,-5.46875 8.20312,0"
       id="path156" />
    <path
       style="fill:#ff0000;fill-opacity:1;fill-rule:nonzero;stroke:none"
       d="m 383.58984,338.46094 c 0,5.46875 -8.20703,5.46875 -8.20703,0 0,-5.46875 8.20703,-5.46875 8.20703,0"
       id="path158" />
    <path
       style="fill:#000000;fill-opacity:1;fill-rule:nonzero;stroke:none"
       d="m 342.5625,256.41016 c 0,5.46875 -8.20313,5.46875 -8.20313,0 0,-5.46875 8.20313,-5.46875 8.20313,0"
       id="path160" />
    <path
       style="fill:#ff0000;fill-opacity:1;fill-rule:nonzero;stroke:none"
       d="m 404.10156,297.4375 c 0,5.46875 -8.20312,5.46875 -8.20312,0 0,-5.47266 8.20312,-5.47266 8.20312,0"
       id="path162" />
    <path
       style="fill:#000000;fill-opacity:1;fill-rule:nonzero;stroke:none"
       d="m 383.58984,297.4375 c 0,5.46875 -8.20703,5.46875 -8.20703,0 0,-5.47266 8.20703,-5.47266 8.20703,0"
       id="path164" />
    <path
       style="fill:#ff0000;fill-opacity:1;fill-rule:nonzero;stroke:none"
       d="m 383.58984,317.94922 c 0,5.46875 -8.20703,5.46875 -8.20703,0 0,-5.46875 8.20703,-5.46875 8.20703,0"
       id="path166" />
    <path
       style="fill:#000000;fill-opacity:1;fill-rule:nonzero;stroke:none"
       d="m 342.5625,276.92187 c 0,5.47266 -8.20313,5.47266 -8.20313,0 0,-5.46875 8.20313,-5.46875 8.20313,0"
       id="path168" />
    <path
       style="fill:#ff0000;fill-opacity:1;fill-rule:nonzero;stroke:none"
       d="m 363.07812,338.46094 c 0,5.46875 -8.20703,5.46875 -8.20703,0 0,-5.46875 8.20703,-5.46875 8.20703,0"
       id="path170" />
    <path
       style="fill:#000000;fill-opacity:1;fill-rule:nonzero;stroke:none"
       d="m 363.07812,317.94922 c 0,5.46875 -8.20703,5.46875 -8.20703,0 0,-5.46875 8.20703,-5.46875 8.20703,0"
       id="path172" />
    <path
       style="fill:#ff0000;fill-opacity:1;fill-rule:nonzero;stroke:none"
       d="m 342.5625,317.94922 c 0,5.46875 -8.20313,5.46875 -8.20313,0 0,-5.46875 8.20313,-5.46875 8.20313,0"
       id="path174" />
    <path
       style="fill:#000000;fill-opacity:1;fill-rule:nonzero;stroke:none"
       d="m 363.07812,276.92187 c 0,5.47266 -8.20703,5.47266 -8.20703,0 0,-5.46875 8.20703,-5.46875 8.20703,0"
       id="path176" />
    <path
       style="fill:#ff0000;fill-opacity:1;fill-rule:nonzero;stroke:none"
       d="m 383.58984,276.92187 c 0,5.47266 -8.20703,5.47266 -8.20703,0 0,-5.46875 8.20703,-5.46875 8.20703,0"
       id="path178" />
    <path
       style="fill:#000000;fill-opacity:1;fill-rule:nonzero;stroke:none"
       d="m 342.5625,297.4375 c 0,5.46875 -8.20313,5.46875 -8.20313,0 0,-5.47266 8.20313,-5.47266 8.20313,0"
       id="path180" />
    <path
       style="fill:#ff0000;fill-opacity:1;fill-rule:nonzero;stroke:none"
       d="m 363.07812,297.4375 c 0,5.46875 -8.20703,5.46875 -8.20703,0 0,-5.47266 8.20703,-5.47266 8.20703,0"
       id="path182" />
    <path
       style="fill:#000000;fill-opacity:0.5;fill-rule:nonzero;stroke:none"
       d="m 338.46094,276.92187 v 20.51563 l 20.51172,-20.51563"
       id="path186" />
    <path
       style="fill:#000000;fill-opacity:0.5;fill-rule:nonzero;stroke:none"
       d="m 338.46094,256.41016 v 20.51171 h 20.51172"
       id="path188" />
    <path
       style="fill:#ff0000;fill-opacity:0.5;fill-rule:nonzero;stroke:none"
       d="m 379.48828,338.46094 v -20.51172 l -20.51562,20.51172"
       id="path190" />
    <path
       style="fill:#000000;fill-opacity:0.5;fill-rule:nonzero;stroke:none"
       d="m 317.94922,276.92187 h 20.51172 v 20.51563"
       id="path192" />
    <path
       style="fill:#000000;fill-opacity:0.5;fill-rule:nonzero;stroke:none"
       d="m 317.94922,276.92187 h 20.51172 v -20.51171"
       id="path194" />
    <path
       style="fill:#ff0000;fill-opacity:0.5;fill-rule:nonzero;stroke:none"
       d="M 400,317.94922 V 297.4375 l -20.51172,20.51172"
       id="path196" />
    <path
       style="fill:#ff0000;fill-opacity:0.5;fill-rule:nonzero;stroke:none"
       d="m 400,317.94922 h -20.51172 v 20.51172"
       id="path198" />
    <path
       style="fill:#000000;fill-opacity:0.5;fill-rule:nonzero;stroke:none"
       d="m 317.94922,256.41016 v 20.51171 l 20.51172,-20.51171"
       id="path200" />
    <path
       style="fill:#ff0000;fill-opacity:0.5;fill-rule:nonzero;stroke:none"
       d="m 400,338.46094 v -20.51172 l -20.51172,20.51172"
       id="path202" />
    <path
       style="fill:#ff0000;fill-opacity:0.5;fill-rule:nonzero;stroke:none"
       d="m 379.48828,317.94922 -20.51562,20.51172 -20.51172,-20.51172 20.51172,-20.51172"
       id="path204" />
    <path
       style="fill:#ff0000;fill-opacity:0.5;fill-rule:nonzero;stroke:none"
       d="m 400,297.4375 -20.51172,20.51172 -20.51562,-20.51172 20.51562,-20.51563"
       id="path206" />
  </g>
</svg>
